<!DOCTYPE svg PUBLIC "-//W3C//DTD SVG 1.1//EN" "http://www.w3.org/Graphics/SVG/1.1/DTD/svg11.dtd">
<!-- Uploaded to: SVG Repo, www.svgrepo.com, Transformed by: SVG Repo Mixer Tools -->
<svg fill="#ffffff" version="1.1" id="Capa_1" xmlns="http://www.w3.org/2000/svg" xmlns:xlink="http://www.w3.org/1999/xlink" width="800px" height="800px" viewBox="0 0 52.5 52.5" xml:space="preserve" stroke="#ffffff">
<g id="SVGRepo_bgCarrier" stroke-width="0"/>
<g id="SVGRepo_tracerCarrier" stroke-linecap="round" stroke-linejoin="round"/>
<g id="SVGRepo_iconCarrier"> <g> <g> <path d="M34.669,28.477c-0.412-0.34-1.62,0.086-1.863,0.5c-1.505,2.561-5.714-2.023-6.687-2.96 c-2.084-2.007-1.153-3.731-0.839-5.541c0.189-1.088,0.098-2.045,0.265-2.173c0.147-0.114,0.21-0.226,0.118-0.307 c-2.217-1.949-6.399-9.57-10.305-5.469c-6.161,6.47,1.968,15.108,6.665,19.483c3.683,3.43,8.35,7.811,13.556,7.39 c0.12-0.005,0.238-0.001,0.359-0.013c1.023-0.164,1.987-0.434,2.968-0.92C45.653,35.121,37.753,31.021,34.669,28.477z M38.283,37.579c-1.066,0.288-2.422,0.175-2.958-0.053c-0.538-0.228-1.159-0.248-1.412,0.007s-0.616,0.461-0.81,0.459 c-0.192-0.001-0.684-0.102-1.079-0.27c-0.394-0.168-0.397-0.64-0.024-1.016c0.372-0.376,0.635-0.709,0.584-0.742 c-0.05-0.033-0.389,0.25-0.755,0.637c-0.367,0.387-1.206,0.404-1.836-0.023c-0.629-0.427-0.789-1.156-0.385-1.589 c0.405-0.435,0.189-1.252-0.464-1.851c-0.652-0.599-1.539-0.724-1.992-0.267c-0.452,0.457-1.483,0.228-2.282-0.536 c-0.665-0.635-1.323-1.275-1.991-1.896c-0.11-0.102-0.221-0.206-0.331-0.311c-0.182-0.173,0.044-0.688,0.505-1.148 c0.462-0.463,0.621-1.062,0.361-1.346c-0.26-0.285-0.87-0.149-1.366,0.305c-0.497,0.455-1.535,0.191-2.266-0.637 c-0.069-0.078-0.138-0.156-0.206-0.234c-0.724-0.835-0.803-1.984-0.247-2.51c0.556-0.526,0.997-0.967,0.984-0.986 c-0.012-0.019-0.467,0.4-1.017,0.938c-0.549,0.538-1.541,0.261-2.104-0.688c-0.225-0.379-0.434-0.764-0.625-1.155 c-0.485-0.993-0.166-2.389,0.552-3.051c0.717-0.662,1.245-1.594,1.225-2.083c-0.012-0.293-0.011-0.589,0.007-0.887 c0.021-0.263,0.054-0.546,0.102-0.84c0.076-0.461-0.487-0.218-1.296,0.534c-0.132,0.123-0.265,0.245-0.397,0.368 c-0.81,0.752-1.5,0.908-1.484,0.349c0.009-0.332,0.035-0.668,0.078-1.009c0.398-3.156,3.008-3.566,4.96-1.396 c0.532,0.592,1.023,1.212,1.523,1.822c0.699,0.855,1.242,1.549,1.177,1.626c-0.051,0.06-0.07,0.117-0.042,0.165 c1.556,2.705-1.576,4.666,0.524,7.58c1.309,1.815,3.618,3.499,5.512,4.638c1.046,0.63,2.102,0.709,3.05,0.411 c1.054-0.332,2.409-0.481,3.292,0.182c1.358,1.021,2.693,2.055,3.901,3.374C40.581,36.004,40.255,37.047,38.283,37.579z"/> <path d="M27.034,1.111C17.036,1.389,8.47,6.774,3.956,15.715c-2.421,4.798-2.753,10.332-1.883,15.546 c0.316,1.894,1.398,3.797,1.145,5.771c-0.243,1.893-1.198,3.893-1.885,5.678c-0.971,2.522-1.521,4.84-1.274,7.538 c0.046,0.501,0.822,0.491,1.148,0.425c6.083-1.263,11.178-3.104,17.139-0.774c3.949,1.543,8.73,1.874,12.878,1.055 c8.283-1.635,14.921-6.683,18.726-14.219C58.41,19.976,44.548,1.599,27.034,1.111z M5.385,16.71 c2.333-5.575,6.939-9.826,12.438-12.152c1.017-0.431,1.233-0.079,0.445,0.694c-3.981,3.909-8.033,7.893-12.141,11.936 C5.34,17.962,4.959,17.73,5.385,16.71z M47.51,37.656c-4.398,8.714-14.152,12.984-23.556,12.007 c-0.19-0.021-0.378-0.048-0.565-0.08c-0.31-0.055-0.473-0.2-0.368-0.305c0.105-0.106-0.157-0.351-0.578-0.565 c-0.42-0.213-0.899-0.265-1.08-0.099c-0.18,0.167-1.159-0.026-2.169-0.472c-2.006-0.883-3.957-1.746-6.163-1.396 c-1.199,0.189-2.393,0.418-3.583,0.665c-1.082,0.224-1.846-0.327-1.602-1.224c0.244-0.895-0.148-0.992-0.957-0.239 c-0.463,0.431-0.925,0.862-1.388,1.294c-0.808,0.753-1.928,1.469-2.503,1.596c-0.575,0.125-1.078-0.677-0.929-1.771 c0.3-2.211,1.128-4.336,1.893-6.479c0.371-1.041,1.167-2.438,1.814-3.104c0.392-0.404,0.783-0.808,1.174-1.206 c0.515-0.531,1.027-1.061,1.539-1.588c0.769-0.793,1.272-1.875,1.146-2.424c-0.125-0.549-0.839-0.367-1.623,0.412 c-0.411,0.408-0.82,0.814-1.227,1.221c-0.783,0.779-1.424,0.506-1.733-0.555c-0.186-0.637-0.425-1.312-0.65-1.961 c-0.362-1.043,0.045-2.539,0.832-3.313c0.849-0.839,1.698-1.675,2.546-2.513c0.786-0.775,1.518-2.291,1.735-3.367 c0.217-1.076-0.153-1.288-0.922-0.495c-1.225,1.262-2.448,2.525-3.671,3.788c-0.769,0.793-1.419,0.654-1.367-0.308 c0.053-0.962,0.781-2.377,1.552-3.168c2.138-2.191,4.166-4.268,6.044-6.187c0.773-0.789,1.857-2.201,2.504-3.097 c1.475-2.044,3.257-3.847,5.282-5.345c0.888-0.657,2.287-1.757,3.071-2.534c0.796-0.788,1.439-1.415,1.899-1.85 c0.034-0.034,0.061-0.062,0.088-0.089c0.049-0.049,0.108-0.091,0.133-0.094c0.025-0.004-0.575,0.639-1.342,1.433 c-0.063,0.065-0.128,0.132-0.193,0.2c-0.767,0.794-1.304,1.387-1.202,1.322c0.103-0.064,0.812-0.755,1.582-1.547 c0.005-0.005,0.009-0.01,0.014-0.014c0.77-0.792,1.948-1.511,2.636-1.571c0.415-0.036,0.83-0.062,1.247-0.074 c0.051,0.002,0.101,0.005,0.15,0.009c0.083,0.006-0.097,0.264-0.401,0.577c-0.306,0.312,0.3,0.29,1.38,0.057 c0.019-0.004,0.037-0.008,0.055-0.012c1.08-0.23,2.858-0.213,3.932,0.046C46.696,6.782,54.685,23.444,47.51,37.656z"/> <path d="M8.942,40.434c-0.451,0.451-0.91,0.912-1.38,1.385c-0.78,0.781-0.756,0.805,0.051,0.051 c0.384-0.357,0.769-0.717,1.154-1.076c0.808-0.754,1.491-1.457,1.526-1.57C10.328,39.108,9.722,39.65,8.942,40.434z"/> <path d="M10.524,16.905c-3.411,3.521-4.833,5.005-0.11,0.2c0.775-0.787,1.424-1.473,1.451-1.531 C11.892,15.515,11.293,16.112,10.524,16.905z"/> </g> </g> </g>
</svg>